<svg xmlns="http://www.w3.org/2000/svg" viewBox="0 0 64 64"><title>1</title><g id="Layer_77" data-name="Layer 77"><path d="M61.7,31.82l-6-17.75A9.73,9.73,0,0,0,46.37,7.2H25.23A2,2,0,0,0,24,7.65l-2.47,2A4.8,4.8,0,0,0,17.22,7H6.81A4.81,4.81,0,0,0,2,11.81v27a4.81,4.81,0,0,0,4.81,4.81H17.22A4.8,4.8,0,0,0,22,39.19h2.11l7.34,15A4.43,4.43,0,0,0,35.57,57h4.05A4.41,4.41,0,0,0,44,52.75a2,2,0,0,0,0-.35L42.32,40H55.72a6.28,6.28,0,0,0,6-8.2ZM18,38.84a.81.81,0,0,1-.81.81H6.81A.81.81,0,0,1,6,38.84v-27A.81.81,0,0,1,6.81,11H17.22a.81.81,0,0,1,.81.81v27Zm39.52-3.75a2.26,2.26,0,0,1-1.84.93H40a2,2,0,0,0-2,2.27L40,52.7a.42.42,0,0,1-.4.3H35.57a.42.42,0,0,1-.4-.28,1.94,1.94,0,0,0-.08-.2L27.15,36.3a2,2,0,0,0-1.8-1.12H22V14.4l3.92-3.2H46.37a5.76,5.76,0,0,1,5.52,4.1l6,17.75A2.26,2.26,0,0,1,57.55,35.08Z"/><circle cx="11.57" cy="17.02" r="3.55"/></g></svg>